<svg xmlns="http://www.w3.org/2000/svg" version="1.1" xmlns:xlink="http://www.w3.org/1999/xlink" xmlns:svgjs="http://svgjs.com/svgjs" width="1440" height="400" preserveAspectRatio="none" viewBox="0 0 1440 400"><g mask="url(&quot;#SvgjsMask1036&quot;)" fill="none"><rect width="1440" height="400" x="0" y="0" fill="rgba(250, 246, 229, 1)"></rect><circle r="3.99" cx="1184.28" cy="274.81" filter="url(#SvgjsFilter1037)" fill="rgba(167, 164, 151, 1)"></circle><circle r="5.475" cx="839.395" cy="196.755" filter="url(#SvgjsFilter1037)" fill="rgba(167, 164, 151, 1)"></circle><circle r="6.275" cx="1042.345" cy="275.255" filter="url(#SvgjsFilter1037)" fill="rgba(167, 164, 151, 1)"></circle><circle r="4.785" cx="768.055" cy="320.175" filter="url(#SvgjsFilter1037)" fill="rgba(167, 164, 151, 1)"></circle><circle r="5.28" cx="1112.43" cy="320.09" filter="url(#SvgjsFilter1037)" fill="rgba(167, 164, 151, 1)"></circle><circle r="5.765" cx="1404.785" cy="264.685" filter="url(#SvgjsFilter1037)" fill="rgba(167, 164, 151, 1)"></circle><circle r="6.07" cx="660.2600000000001" cy="231.04999999999998" filter="url(#SvgjsFilter1037)" fill="rgba(167, 164, 151, 1)"></circle><circle r="3.975" cx="1205.5049999999999" cy="111.625" filter="url(#SvgjsFilter1037)" fill="rgba(167, 164, 151, 1)"></circle><circle r="5.905" cx="9.685" cy="351.645" filter="url(#SvgjsFilter1037)" fill="rgba(167, 164, 151, 1)"></circle><circle r="3.735" cx="513.085" cy="315.845" filter="url(#SvgjsFilter1037)" fill="rgba(167, 164, 151, 1)"></circle><circle r="6.55" cx="1115.8899999999999" cy="292.66" filter="url(#SvgjsFilter1037)" fill="rgba(167, 164, 151, 1)"></circle><circle r="6.615" cx="996.8050000000001" cy="368.885" filter="url(#SvgjsFilter1037)" fill="rgba(167, 164, 151, 1)"></circle><circle r="6.35" cx="1284.9299999999998" cy="313.89000000000004" filter="url(#SvgjsFilter1037)" fill="rgba(167, 164, 151, 1)"></circle><circle r="6.105" cx="1186.065" cy="396.695" filter="url(#SvgjsFilter1037)" fill="rgba(167, 164, 151, 1)"></circle><circle r="3.605" cx="712.1850000000001" cy="102.575" filter="url(#SvgjsFilter1037)" fill="rgba(167, 164, 151, 1)"></circle><circle r="5.845" cx="523.5350000000001" cy="312.555" filter="url(#SvgjsFilter1037)" fill="rgba(167, 164, 151, 1)"></circle><circle r="5.275" cx="289.145" cy="364.405" filter="url(#SvgjsFilter1037)" fill="rgba(167, 164, 151, 1)"></circle><circle r="3.915" cx="1085.105" cy="340.20500000000004" filter="url(#SvgjsFilter1037)" fill="rgba(167, 164, 151, 1)"></circle><circle r="3.52" cx="1094.3799999999999" cy="84.2" filter="url(#SvgjsFilter1037)" fill="rgba(167, 164, 151, 1)"></circle><circle r="5.075" cx="705.615" cy="18.385" filter="url(#SvgjsFilter1037)" fill="rgba(167, 164, 151, 1)"></circle><path d="M414.4 419.5L421.2 400.6 430.3 410.6C431.1 411.7 433.1 412 434.9 411 435.9 409.5 436.2 407.5 435.3 406.4L423.7 393 430.1 375.5 453.6 402.9C455.2 404.6 457.2 404.8 458.2 403.3 460 402.3 460.2 400.3 458.6 398.7L432.7 368.5 438.1 352.4 476.4 345.1 486.4 356.3 471.8 396.2C471.9 396.8 472.1 397.4 472.2 398.1 472.3 398.7 473.2 399.8 473.9 400.3 476.1 401.2 477.8 400.3 478.1 398.2L491.4 361.8 503.1 375.9 496.9 394.7C496.3 394.8 496.4 395.4 496.6 396 496.8 397.3 497.7 398.4 499 398.8 500.4 399.2 502.2 398.2 503.2 396.7L508.1 381.5 523.1 398.8C524 399.9 526 400.2 527.8 399.2 528.8 397.7 529.1 395.7 528.2 394.6L514 378.4 527.2 375.9C529.1 375.5 530 373.4 529.8 372.1 529.4 370.2 527.8 368.6 525.9 368.9L509 372.2 497.2 358.1 532.4 351.4C534.3 351.1 535.3 349.6 534.9 347.7 534.6 345.8 533.1 344.8 531.2 345.1L492.2 352.6 481.5 340.9 494.6 303.9 509.1 301.1 535.8 331.9C536.8 333.6 539.4 333.8 540.5 332.3 542.2 331.3 541.9 329.4 540.9 327.7L516.7 299.7 534.9 296.2 546.7 310.3C547.5 311.4 550.2 311.6 551.3 310.7S552.6 307.2 551.6 305.4L542.4 294.8 564.4 290.6C566.3 290.2 567.2 288.1 566.9 286.2 566.6 285 565 283.3 563.1 283.7L541.1 287.9 545.6 274C546 272.6 545.7 270.7 543.5 269.8 542.2 269.4 539.8 270.5 539.4 271.9L533.6 289.3 515.3 292.8 527.6 257.9C527.9 255.9 527.5 254 525.4 253.1 524 252.7 521.6 253.8 521.2 255.2L507.8 294.2 493.3 297 467.5 267.4 473.2 252.6 512.1 245.2C514 244.8 515 243.3 514.7 241.4 514.3 239.6 512.7 237.9 510.8 238.3L475.6 245 481.4 227.6 498.4 224.3C500.3 224 501.3 222.5 500.9 220.6 500.6 218.7 499.1 217.7 497.2 218.1L484 220.6 491.2 200.3C491.6 198.9 490.5 196.5 489.1 196.1 487.1 195.9 485.2 196.2 485 198.2L477.2 219.3 467.2 207.5C465.7 206.5 463.7 206.2 462.5 207.1 461.4 207.9 461 209.3 461.2 210.6 461.2 210.6 461.4 211.2 462.1 211.7L474.8 226.9 469 244.3 443.3 215.3C442.3 213.5 440.3 213.3 438.6 214.9 438.1 215.6 437.6 216.4 437.8 217.6 438 218.3 438.1 218.9 438.2 219.5L466.4 251.3 461.2 265.3 422.9 272.6 412 259.7 425 222C425.9 219.9 424.9 218.1 422.9 217.9 421.4 216.9 419.6 217.8 418.7 220L407 254.1 394.6 240.2 400.5 223.4C400.9 222.1 399.9 220.3 398.4 219.3 396.4 219 394.5 219.4 394.2 221.4L389.5 234 376.2 218.9C375.2 217.2 373.3 217.5 371.6 218.5 371 219.3 370.7 220.6 370.9 221.9 370.9 221.9 371 222.5 371.1 223.2L385.3 239.4 369.6 242.4C368.3 242.6 366.7 244.2 367 246.1 367.4 248 369.5 248.9 370.8 248.6L390.3 244.9 402.7 258.9 364.3 266.2C362.4 266.5 361.5 268.6 361.9 270.5S363.8 273.4 365.6 273.1L407.8 265.1 417.8 276.8 404.7 313.8 388.3 317 361.5 285.6C360 284.6 358 284.3 356.2 285.3 355.7 286 355.3 287.4 355.6 288.7 355.7 289.3 355.8 289.9 356.6 290.4L380.8 318.4 362.6 321.9 350.1 307.9C349.3 306.8 347.3 306.5 345.5 307.5 344.5 309 344.2 311 345.1 312.2L355 323.3 334.9 327.1C333.6 327.4 332.1 329.6 332.4 330.9 332.7 332.8 335 334.3 336.2 334.1L356.3 330.2 351.1 343.6C351.2 344.2 351.3 344.9 351.4 345.5 351.7 346.7 352.5 347.9 353.3 348.4 355.3 348.7 357.1 347.7 358.1 346.2L363.9 328.8 382.1 325.3 369.9 360.2C369 362.3 370 364.1 371.3 364.5 373.5 365.4 375.2 364.4 376.2 362.9L389.7 323.9 406 320.8 431.8 350.4 426.8 365 384.7 373C382.8 373.4 381.8 374.9 382.1 376.8 382.5 378.7 384 379.7 385.9 379.3L424.2 372 417.8 389.5 398.3 393.2C397 393.5 395.5 395.7 395.9 397.6 396.2 399.5 398.4 400.4 399.6 400.2L415.3 397.2 408.1 417.4C408.2 418.1 408.2 418.1 408.4 418.7 408.6 419.9 409.5 421.1 410.2 421.6 412.2 421.9 414 420.9 414.4 419.5ZM413.5 319.3L410.9 315.9 412.2 312.4 422.8 282.4 424.1 278.9 427.9 278.2 458.7 272.3 462.4 271.6 464.9 274.4 485.8 298.4 488.3 301.2 487.1 305.3 476.4 334.7 475.2 338.9 471.5 339.6 440.7 345.4 436.9 346.2 434.3 342.7 413.5 319.3Z" fill="rgba(167, 164, 151, 1)"></path><path d="M598.2 234.3L624.6 237.3 639.2 255.9 615.8 259.3 594.6 243.2C594.6 243.2 594.4 243.1 594.4 243.1 593.8 242.9 592.9 243.2 592.4 243.7 591.7 244.5 592 245.6 592.9 245.9L611.4 259.9 600.1 261.6 591.8 255.5C591.8 255.5 591.5 255.4 591.5 255.4 590.9 255.2 590.1 255.5 589.5 256 588.9 256.8 589.1 257.9 590 258.2L595.5 262.5 587.2 263.7C586.4 263.7 585.7 264.8 585.7 265.5 585.7 266.5 586.9 267 587.6 266.9L596 265.8 591.7 271.3C591 272.1 591.3 273.2 592.1 273.6 592.9 274.2 594.1 274 594.4 273.1L600.5 264.8 611.7 263.5 597.7 282C597.1 282.8 597.3 283.9 598.2 284.3 599 284.9 600.1 284.7 600.5 283.8L616.5 262.6 639.9 259.3 631 281.5 606.5 292.1C605.6 292.4 605.3 293.3 605.6 294.1 606 295 606.9 295.3 607.7 295L629.3 285.7 625.1 296.4 615.9 300.3C615.1 300.7 614.7 301.6 615.1 302.4 615.4 303.2 616.3 303.6 617.2 303.2L623.4 300.6 620.1 308.9C619.4 309.7 620.1 310.6 621 311 621.9 311.3 622.7 311 623 310.1L626.1 302.3 628.8 308.6C629.2 309.4 630.1 309.8 630.9 309.4S632.1 308.2 631.7 307.3L627.8 298.2 632.1 287.5 641.3 309.1C641.7 310 642.6 310.3 643.4 310 644.3 309.6 644.6 308.7 644.3 307.9L633.7 283.3 642.5 261.3 657.2 279.9 654.1 305.6C654.1 306.6 654.8 307.3 655.7 307.6 656.7 307.7 657.4 306.9 657.7 306L660.4 283 667.5 292 666.2 302.2C666.1 303.2 666.9 303.8 667.8 304.2 668.8 304.3 669.5 303.5 669.7 302.9L670.4 295.9 675.7 302.5C676.2 303.1 677.4 303.5 678 302.8 678.7 302 679 301.1 678.2 300.4L673 293.9 679.9 294.6C680.9 294.6 681.6 293.9 681.8 293.3 681.8 292.5 681.4 291.7 680.8 291.5 680.8 291.5 680.5 291.4 680.5 291.4L670.3 290 663.3 281 686.3 283.7C687.3 283.8 688 283 688.2 282.4 688.2 281.7 687.8 280.8 687.2 280.6 687.2 280.6 686.9 280.5 686.9 280.5L660.5 277.5 645.9 258.9 669.3 255.5 690.5 271.6C691.3 272.2 692.4 272 692.8 271.1 693.4 270.3 693.2 269.2 692.3 268.8L673.7 254.9 685.1 253.2 693.3 259.3C694.1 259.9 695.2 259.7 695.6 258.8 696.3 258 696 256.9 695.1 256.5L689.6 252.3 698 251.1C698.7 251.1 699.5 250 699.4 249.3 699.4 248.6 698.9 248 698.3 247.8 698 247.7 697.7 247.6 697.3 247.7L688.9 248.9 693.2 243.3C693.8 242.6 693.6 241.4 692.7 241.1 692.7 241.1 692.4 241 692.4 241 691.8 240.7 691 241.1 690.4 241.6L684.4 249.8 673 251.5 687 232.9C687.6 232.2 687.4 231 686.5 230.7 686.5 230.7 686.2 230.6 686.2 230.6 685.6 230.3 684.8 230.7 684.3 231.2L668.2 252.3 644.8 255.7 653.6 233.7 678.1 223.2C679 222.8 679.3 222 679 221.1 678.6 220.3 677.7 219.9 676.9 220.3L655.4 229.3 659.7 218.6 668.8 214.6C669.6 214.3 670 213.4 669.6 212.6S668.4 211.4 667.6 211.7L661.3 214.4 664.4 206.7C664.8 205.8 664.4 205 663.5 204.6 662.6 204.2 661.8 204.6 661.4 205.5L658.4 213.2 655.7 207C655.5 206.6 655.3 206.1 654.7 205.9S653.7 205.8 653.3 206C652.5 206.4 652.1 207.3 652.5 208.1L656.4 217.3 652.1 227.9 642.8 206.3C642.7 205.9 642.5 205.5 641.9 205.2 641.6 205.1 640.9 205.2 640.5 205.4 639.6 205.7 639.3 206.6 639.6 207.4L650.2 232 641.4 254 626.7 235.4 629.7 209C629.7 208.3 629.3 207.4 628.7 207.2 628.7 207.2 628.4 207.1 628.4 207.1 627.4 207 626.7 207.8 626.5 208.4L623.8 231.5 616.8 222.4 618.1 212.3C618 211.5 617.7 210.7 617.1 210.5 617.1 210.5 616.8 210.4 616.8 210.4 615.7 210.3 615.1 211.1 614.9 211.7L614.1 218.6 608.9 212C608.6 211.9 608.4 211.5 608.1 211.4 607.5 211.1 606.8 211.2 606.2 211.7 605.6 212.4 605.2 213.3 606 214L611.3 220.6 604.3 219.9C603.3 219.8 602.7 220.6 602.4 221.2 602.4 222.2 603.1 222.8 603.7 223.1L613.9 224.4 621 233.4 597.9 230.7C596.9 230.7 596.3 231.4 596 232 596.6 233.3 597.2 234.2 598.2 234.3Z" fill="rgba(167, 164, 151, 1)"></path><path d="M1030.5 404.8L1025 395.1 1031.7 394.9C1032.5 394.9 1033.2 394.2 1033.4 393.2 1033.2 392.4 1032.5 391.6 1031.6 391.9L1023.2 391.8 1018.6 384.4 1036.2 384.5C1037.1 384.3 1037.8 383.6 1037.9 382.9 1037.8 381.7 1037.1 381 1036.2 381.2L1016.8 381.1 1010.1 369.6 1025.3 371.3 1016.1 359 1029.5 358.9 1039.4 375.7C1039.3 375.9 1039.5 376.1 1039.8 376.3 1040.4 376.6 1041.1 376.6 1041.7 376.2 1042.3 375.8 1042.5 374.8 1042.2 374L1033.2 358.8 1041.9 359 1046.3 366.3C1046.4 366.7 1046.7 366.9 1046.9 367.1 1047.2 367.2 1047.9 367.3 1048.5 366.9 1049.1 366.5 1049.3 365.5 1048.9 364.9L1045.7 359 1056.9 358.7C1057.9 358.9 1058.3 358.1 1058.5 357.1 1058.6 356.4 1057.9 355.6 1056.8 355.7L1045.7 355.7 1049.1 349.8C1049.5 349 1049 348 1048.5 347.7 1047.6 347.2 1046.8 347.4 1046.3 348.3L1042 355.7 1033.3 355.5 1041.8 340.5C1042.3 339.7 1042.1 338.8 1041.3 338.4 1040.7 338 1039.5 338.1 1039.1 339L1029.5 355.6 1016.2 355.7 1025.1 343.5 1010 345.2 1016.7 333.5 1035.9 333.5C1037.1 333.4 1037.6 332.6 1037.6 331.8 1037.7 331.1 1037 330.4 1036 330.2L1018.5 330.5 1022.8 323 1031.4 322.8C1032.4 323 1033.1 322.3 1033.1 321.1 1033.1 320.4 1032.4 319.7 1031.3 319.7L1024.7 319.7 1030.3 309.9C1030.7 309.1 1030.5 308.2 1029.7 307.7S1028 307.5 1027.5 308.3L1021.9 318.1 1018.5 312.4C1018 311.4 1017 311.2 1016.4 311.6 1015.4 312.1 1015.2 313.1 1015.8 313.8L1020 321.4 1015.7 328.9 1007.1 313.6C1006.4 312.9 1005.4 312.7 1004.8 313.1 1003.8 313.6 1003.6 314.6 1004.3 315.3L1014 331.9 1007.3 343.6 1001.2 329.8 995.1 343.6 988.4 332.1 998 315.4C998.5 314.6 997.9 313.5 997.4 313.2 996.6 312.8 995.7 313 995.2 313.8L986.5 329.1 982 321.4 986.3 313.9C986.8 313.1 986.5 312.2 985.7 311.7 985.2 311.4 984 311.5 983.5 312.3L980.2 318.1 974.6 308.6C974.1 307.6 973.1 307.4 972.3 308.1 971.7 308.5 971.2 309.3 971.9 310.1L977.4 319.8 970.6 320C969.9 320 969.2 320.7 969.1 321.4 969.1 322.1 969.5 322.7 969.7 322.8 970 323 970.3 323.2 970.7 323L979.2 323.1 983.8 330.5 966.2 330.4C965.3 330.6 964.5 331.3 964.5 332 964.5 332.7 964.9 333.3 965.4 333.6 965.7 333.8 965.7 333.8 966.1 333.7L985.6 333.8 992.3 345.3 977 343.6 986.2 355.9 972.9 356 962.9 339.2C962.5 338.6 961.7 338.2 960.7 338.7 960.1 339.1 959.9 340.1 960.1 340.9L969.2 356.1 960.4 355.9 956.1 348.6C955.9 347.7 954.9 347.5 953.8 348 953.2 348.4 953 349.4 953.3 350.3L956.7 355.9 945.5 356.2C944.5 356 944 356.8 943.8 357.8 943.9 358.2 944.3 358.8 944.6 359 944.9 359.1 945.2 359.3 945.6 359.2L956.6 359.2 953.3 365.1C952.8 365.9 953.3 366.9 953.9 367.2L953.9 367.2C954.7 367.7 955.6 367.5 956.1 366.6L960.4 359.1 969.1 359.4 960.5 374.4C960 375.2 960.3 376.1 961.1 376.5S962.8 376.8 963.3 375.9L972.8 359.3 986.2 359.2 977.3 371.4 992.3 369.7 985.6 381.4 966.4 381.4C965.3 381.5 964.8 382.3 964.8 383 964.7 383.8 965.4 384.5 966.4 384.7L983.7 384.7 979.6 391.9 971 392.1C970 391.9 969.2 392.6 969.3 393.8 969.3 394.5 969.9 395.2 970.9 395.4L977.7 395.2 972.1 405C971.6 405.8 971.9 406.7 972.7 407.1S974.4 407.4 974.9 406.6L980.5 396.8 983.9 402.5C984 402.9 984.3 403.1 984.5 403.2 985.1 403.6 985.5 403.4 986 403.3 987 402.8 987.2 401.8 986.5 401.1L982.4 393.5 986.7 386 995.3 401.3C995.5 401.4 995.8 401.6 996.1 401.7 996.6 402.1 997.1 401.9 997.5 401.8 998.6 401.3 998.8 400.3 998.1 399.6L988.4 383 995.1 371.3 1001.2 385.1 1007.3 371.3 1013.9 382.8 1004.4 399.5C1003.9 400.3 1004.4 401.4 1005 401.7 1005.8 402.1 1006.7 401.9 1007.2 401.1L1015.8 386.1 1020.4 393.5 1016.1 401C1015.6 401.8 1015.8 402.7 1016.7 403.2S1018.4 403.4 1018.8 402.6L1022.2 396.8 1027.8 406.3C1027.9 406.7 1028.2 406.9 1028.5 407 1028.8 407.2 1029.5 407.2 1030.1 406.8 1030.7 406.4 1031.1 405.6 1030.5 404.8ZM1001.2 377.4L996.3 366.1 984 367.5 991.3 357.3 984 347.6 996.2 348.7 1001.2 337.5 1006.1 348.8 1018.4 347.4 1011.2 357.3 1018.4 367.3 1006.3 365.9 1001.2 377.4Z" fill="rgba(167, 164, 151, 1)"></path><path d="M42.1 311.6L49.7 305.1 51.2 311.6C51.3 312.3 52.1 312.9 53.1 312.9 53.9 312.5 54.5 311.7 54.4 311L52.6 302.3 59.7 296.2 63.2 313.9C63.5 315.1 64.3 315.7 65.2 315.3 66.2 315.3 66.8 314.5 66.5 313.3L62.5 293.8 68.8 288.1 87.3 294.3 88.9 301.6 72.8 315.5C72.7 315.8 72.6 316.1 72.5 316.4 72.4 316.7 72.5 317.4 72.8 317.8 73.5 318.7 74.5 318.7 75.1 317.9L89.7 305.2 91.5 314.2 84.2 320.9C83.9 320.8 83.8 321.1 83.7 321.4 83.5 322 83.6 322.7 84.1 323.2 84.6 323.7 85.6 323.7 86.4 323.3L92.3 317.9 94.6 329.1C94.7 329.8 95.5 330.4 96.5 330.4 97.4 330 98 329.2 97.9 328.5L95.6 318 102 320.1C102.9 320.4 103.8 319.7 104 319.1 104.3 318.2 104 317.1 103.1 316.8L94.9 314 93.2 305 110.2 310.7C111.1 311 111.9 310.6 112.2 309.7 112.5 308.8 112.1 307.9 111.2 307.6L92.4 301.4 90.5 293.7 105.3 280.7 112.3 283 116.5 303C116.5 304 117.6 304.7 118.4 304.3 119.4 304.3 119.7 303.4 119.7 302.4L115.9 284.3 124.7 287.2 126.5 296.2C126.6 296.9 127.7 297.6 128.4 297.5S129.8 296.3 129.8 295.3L128.4 288.4 139 291.9C139.9 292.2 140.8 291.5 141.1 290.6 141.3 290 141 288.9 140.1 288.6L129.5 285.1 134.9 280.1C135.4 279.6 135.7 278.7 135 277.8 134.4 277.3 133.1 277.2 132.6 277.7L125.9 283.8 117 280.9 130.9 268.7C131.5 267.9 131.8 266.9 131.1 266 130.6 265.5 129.3 265.4 128.8 265.9L113.4 279.7 106.4 277.4 102.4 258.2 108.4 253.1 127.2 259.4C128.2 259.7 129 259.3 129.3 258.3 129.6 257.4 129.3 256.3 128.4 256L111.4 250.4 118.1 244.2 126.3 246.9C127.2 247.2 128 246.8 128.4 245.9 128.7 245 128.2 244.2 127.3 243.9L121 241.8 129 234.7C129.6 234.2 129.7 232.8 129.1 232.3 128.3 231.7 127.4 231.4 126.8 232.2L118.3 239.5 116.8 231.9C116.4 231.1 115.6 230.5 114.9 230.6 114.2 230.7 113.7 231.2 113.5 231.8 113.5 231.8 113.4 232.1 113.6 232.6L115.4 242.3 108.6 248.4 104.5 229.5C104.5 228.5 103.6 227.9 102.5 228.2 102.1 228.4 101.7 228.6 101.5 229.2 101.4 229.5 101.3 229.8 101.2 230.1L105.8 250.9 100.1 255.7 81.6 249.6 80 241.3 94.8 228C95.8 227.3 95.8 226.3 94.9 225.7 94.5 224.9 93.5 224.9 92.6 225.6L79.2 237.6 77.1 228.5 83.8 222.7C84.3 222.2 84.3 221.1 83.9 220.3 83.1 219.7 82.2 219.4 81.6 220.2L76.4 224.6 74.3 214.8C74.3 213.8 73.4 213.5 72.4 213.5 72 213.7 71.5 214.2 71.3 214.8 71.3 214.8 71.2 215.1 71.1 215.4L73.3 225.9 65.7 223.4C65.1 223.2 64 223.5 63.7 224.4 63.4 225.3 64.1 226.2 64.7 226.4L74.1 229.5 76.1 238.7 57.6 232.5C56.7 232.2 55.8 232.9 55.5 233.8S55.6 235.5 56.5 235.8L76.8 242.6 78.4 250.2 63.6 263.2 55.7 260.5 51.6 240.3C51.2 239.5 50.4 238.9 49.4 238.9 49 239.1 48.5 239.6 48.3 240.2 48.2 240.5 48.1 240.8 48.3 241.2L52.1 259.3 43.3 256.4 41.2 247.3C41.1 246.6 40.3 246 39.3 246 38.5 246.4 37.9 247.2 38 247.9L39.6 255.2 29.9 251.9C29.3 251.7 28.1 252.4 27.9 253 27.6 253.9 28.2 255.1 28.8 255.3L38.5 258.5 32.9 263.1C32.8 263.4 32.7 263.7 32.6 264 32.4 264.6 32.5 265.3 32.7 265.7 33.5 266.3 34.6 266.3 35.4 265.9L42.1 259.7 51 262.7 37.1 274.9C36.2 275.6 36.2 276.6 36.7 277.1 37.4 278 38.4 278 39.2 277.6L54.6 263.9 62.5 266.5 66.6 285.7 60.8 290.9 40.4 284.1C39.5 283.8 38.7 284.2 38.4 285.1 38.1 286 38.5 286.8 39.4 287.2L58 293.3 50.9 299.4 41.5 296.3C40.9 296.1 39.6 296.7 39.3 297.6 39 298.5 39.7 299.4 40.4 299.6L47.9 302.1 39.9 309.2C39.8 309.5 39.8 309.5 39.7 309.8 39.5 310.4 39.6 311.1 39.8 311.5 40.6 312.1 41.6 312.1 42.1 311.6ZM66.1 267.7L65.8 265.6 67.2 264.4 79.2 253.8 80.6 252.6 82.4 253.2 97.3 258.2 99.1 258.8 99.5 260.6 102.8 276.2 103.2 278 101.7 279.5 89.8 289.7 88.3 291.3 86.5 290.7 71.6 285.7 69.8 285.1 69.5 283 66.1 267.7Z" fill="rgba(167, 164, 151, 1)"></path><path d="M1155.6 156.3L1174.9 159.8 1167.6 169.1C1166.8 170.1 1166.8 171.8 1168 173.2 1169.4 173.8 1171.2 173.8 1171.8 172.3L1181.3 160.9 1196.4 163 1176.7 186.7C1176 188.1 1176.1 189.9 1177 190.7 1178.7 191.9 1180.4 191.8 1181.1 190.4L1202.9 164.1 1225.9 168 1206.6 186.7 1233.4 187.9 1218.8 206 1185.1 200.8C1184.9 200.3 1184.3 200.5 1183.8 200.7 1182.8 201.1 1181.9 202 1181.8 203.3 1181.7 204.5 1182.8 205.9 1184.2 206.6L1214.7 211.1 1204.7 222.7 1190.1 220.5C1189.4 220.2 1188.9 220.4 1188.3 220.6 1187.8 220.8 1187 221.7 1186.9 222.9 1186.7 224.2 1187.8 225.5 1189.1 225.7L1200.7 227.9 1188.6 243.2C1187.2 244.4 1187.8 245.9 1188.9 247.3 1189.8 248.2 1191.6 248.1 1192.8 246.4L1205.1 231.6 1209.3 242.6C1209.9 244.1 1211.9 244.6 1212.9 244.2 1214.5 243.6 1215.1 242.1 1214.5 240.6L1209.2 226.4 1219.1 214.9 1229.9 243.1C1230.5 244.7 1231.9 245.4 1233.5 244.8 1234.5 244.4 1235.7 242.7 1235.1 241.1L1223.2 209.7 1237.8 191.6 1244.6 217.2 1258.9 195 1267.2 217 1246 243C1244.8 244.6 1245.4 246.2 1246.3 247.1 1247.3 247.9 1249 247.8 1250.4 246.7L1269.4 222.7 1274.8 236.8 1265.5 248.7C1264.2 249.9 1264.3 251.6 1265.9 252.8 1266.8 253.7 1268.6 253.6 1269.8 251.9L1277.2 243.1 1284.2 261.4C1284.7 263 1286.2 263.7 1287.8 263.1S1290 261 1289.4 259.5L1282.4 241.1 1293.8 242.8C1295.8 243.2 1297.2 242.1 1297.3 240.9 1297.8 238.9 1296.6 237.5 1294.9 237.6L1280 234.9 1274.7 220.7 1304.8 226C1306.6 226 1308 224.8 1308.1 223.6 1308.6 221.6 1307.4 220.3 1305.7 220.3L1272.5 215 1264.1 193 1289.6 200.1 1277.6 176.5 1300.7 180.3 1312.6 211.7C1313.2 213.3 1315.1 213.7 1316.2 213.3 1317.8 212.7 1318.4 211.3 1317.8 209.7L1306.9 180.9 1322.2 183.5 1327.6 197.6C1328.2 199.2 1329.6 199.8 1331.2 199.2 1332.3 198.8 1333.4 197.2 1332.8 195.6L1328.7 184.6 1347.7 187.6C1349.7 188 1351.1 186.9 1351 185.1 1351.1 183.9 1350.5 182.3 1348.8 182.4L1329.5 178.9 1336.7 169.6C1337.6 168.7 1337.5 166.9 1336.6 166.1 1335.7 165.2 1334.4 165.1 1333.9 165.3 1333.4 165.5 1332.8 165.7 1332.5 166.4L1323.1 177.8 1307.9 175.7 1327.7 152.1C1328.3 150.6 1328.2 148.9 1327.3 148 1326.4 147.2 1325.2 147 1324.1 147.4 1323.6 147.6 1323.6 147.6 1323.3 148.4L1301.5 174.6 1278.5 170.8 1297.7 152.1 1270.9 150.9 1285.6 132.7 1319.3 137.9C1320.5 138 1322.1 137.4 1322.5 135.4 1322.7 134.2 1321.6 132.8 1320.1 132.2L1289.6 127.6 1299.6 116 1314.2 118.2C1315.7 118.9 1317 117.8 1317.5 115.8 1317.6 114.6 1316.5 113.2 1315 112.5L1303.6 110.9 1315.8 95.5C1317.1 94.4 1316.5 92.8 1315.4 91.4 1314.7 91.1 1313.4 91 1312.9 91.2 1312.4 91.4 1311.9 91.6 1311.5 92.3L1299.2 107.2 1295 96.2C1294.5 94.6 1292.5 94.1 1291.4 94.5L1291.4 94.5C1289.9 95.1 1289.2 96.6 1289.8 98.2L1295.2 112.3 1285.2 123.9 1274.5 95.6C1273.9 94 1272.4 93.4 1270.9 94S1268.6 96 1269.2 97.6L1281.2 129 1266.5 147.2 1259.8 121.6 1245.4 143.8 1237.1 121.8 1258.3 95.7C1259.5 94.1 1258.9 92.5 1258 91.7 1257.1 90.8 1255.3 90.9 1253.9 92L1234.7 115.5 1229.5 101.9 1238.8 90C1240.2 88.9 1240.1 87.1 1238.4 85.9 1237.5 85.1 1235.8 85.1 1234.4 86.3L1227.1 95.6 1220.2 77.3C1219.6 75.7 1218.1 75.1 1216.6 75.7S1214.4 77.7 1214.9 79.3L1221.9 97.6 1210.5 95.9C1209.8 95.6 1209.3 95.8 1208.7 96 1207.7 96.4 1207.4 97.1 1207 97.9 1206.6 99.8 1207.7 101.2 1209.5 101.1L1224.3 103.9 1229.7 118 1199.5 112.7C1199 112.9 1198.4 113.1 1197.9 113.3 1196.9 113.7 1196.5 114.4 1196.2 115.1 1195.8 117.1 1196.9 118.5 1198.7 118.4L1231.9 123.8 1240.2 145.8 1214.7 138.7 1226.7 162.3 1203.7 158.4 1191.8 127C1191.2 125.4 1189.2 125 1188.1 125.4 1186.6 126 1185.9 127.4 1186.5 129L1197.3 157.3 1182.1 155.2 1176.7 141.1C1176.1 139.5 1174.7 138.9 1173.1 139.5S1170.9 141.5 1171.5 143.1L1175.7 154.1 1156.6 151.2C1155.9 150.8 1155.3 151 1154.8 151.2 1154.3 151.4 1153.5 152.4 1153.3 153.6 1153.2 154.8 1153.8 156.4 1155.6 156.3ZM1225.2 147.3L1246 153.1 1257.7 134.9 1263.3 156.1 1284.6 157 1269.5 172.4 1279.1 191.5 1258.3 185.6 1246.7 203.8 1241.2 183.1 1219.7 181.7 1235 166.9 1225.2 147.3Z" fill="rgba(167, 164, 151, 1)"></path><path d="M905.3 92.7L928.8 80.3 951.3 87.5 933.8 103.5 907.3 102.1C907.3 102.1 907 102.1 907 102.1 906.4 102.3 905.9 103 905.7 103.7 905.6 104.7 906.5 105.5 907.4 105.3L930.6 106.5 922.1 114.2 911.9 113.8C911.9 113.8 911.6 113.9 911.6 113.9 910.9 114.1 910.4 114.8 910.3 115.5 910.2 116.5 911 117.3 911.9 117.1L918.9 117.6 912.6 123.2C912 123.6 912 125 912.5 125.5 913 126.4 914.2 126.1 914.8 125.7L921.1 120 920.6 127C920.5 128 921.4 128.8 922.3 128.6 923.3 128.7 924.1 127.9 923.9 126.9L924.3 116.7 932.8 109.3 931.7 132.5C931.6 133.5 932.4 134.3 933.3 134.1 934.3 134.2 935.1 133.3 934.9 132.4L936.3 105.9 953.8 89.9 958.9 113.4 944.5 135.9C944 136.6 944.2 137.6 945 138.1 945.8 138.5 946.7 138.3 947.2 137.6L959.9 117.8 962.4 129 957 137.4C956.5 138.2 956.7 139.1 957.5 139.6 958.2 140.1 959.2 139.9 959.7 139.1L963.3 133.4 965.2 142.1C965.1 143.2 966.2 143.6 967.1 143.4 968.1 143.2 968.6 142.4 968.4 141.5L966.6 133.3 972.3 137C973.1 137.5 974 137.3 974.5 136.5S974.8 134.8 974 134.3L965.6 129 963.2 117.7 983 130.4C983.7 130.9 984.7 130.7 985.2 129.9 985.6 129.2 985.4 128.2 984.7 127.7L962.2 113.3 957.1 90.2 979.7 97.4 991.6 120.3C992.1 121.2 993.1 121.3 994 121.1 994.9 120.6 995 119.6 994.8 118.6L984.1 98.1 995 101.6 999.6 110.7C1000.1 111.6 1001.2 111.7 1002.1 111.5 1003 111 1003.1 110 1002.9 109.3L999.6 103.2 1007.7 105.7C1008.4 105.9 1009.6 105.6 1009.8 104.6 1009.9 103.6 1009.7 102.6 1008.6 102.5L1000.6 100 1006.7 96.7C1007.6 96.2 1007.7 95.2 1007.6 94.6 1007.1 94 1006.4 93.5 1005.7 93.7 1005.7 93.7 1005.4 93.7 1005.4 93.7L996.3 98.3 985.4 94.8 1005.9 84.1C1006.8 83.6 1006.9 82.6 1006.8 82 1006.3 81.4 1005.6 80.9 1004.9 81.1 1004.9 81.1 1004.6 81.1 1004.6 81.1L981.1 93.5 958.6 86.3 976.1 70.3 1002.6 71.7C1003.6 71.9 1004.4 71 1004.2 70.1 1004.3 69.1 1003.5 68.3 1002.5 68.5L979.3 67.3 987.8 59.6 998 60C999 60.1 999.8 59.2 999.6 58.3 999.7 57.3 998.9 56.5 998 56.7L991 56.3 997.3 50.6C997.9 50.2 997.9 48.9 997.5 48.3 997 47.7 996.3 47.6 995.7 47.7 995.4 47.8 995.1 47.8 994.8 48.2L988.5 53.9 989 46.9C989.1 45.9 988.2 45.1 987.3 45.3 987.3 45.3 987 45.3 987 45.3 986.4 45.5 985.9 46.2 985.7 46.9L985.3 57.2 976.8 64.9 978 41.7C978.1 40.7 977.3 39.9 976.3 40.1 976.3 40.1 976 40.2 976 40.2 975.4 40.3 974.9 41.1 974.7 41.8L973.3 68.3 955.8 84.3 950.8 61.1 965.2 38.6C965.7 37.9 965.5 36.9 964.7 36.5 964 36 963 36.2 962.5 36.9L949.8 56.4 947.3 45.2 952.7 36.8C953.2 36 953 35.1 952.2 34.6S950.5 34.3 950 35.1L946.4 40.8 944.6 32.7C944.4 31.7 943.6 31.2 942.7 31.5 941.7 31.7 941.2 32.4 941.4 33.4L943.2 41.5 937.5 37.8C937.1 37.6 936.7 37.3 936.1 37.5S935.3 38 935 38.4C934.5 39.1 934.7 40.1 935.5 40.6L943.9 45.9 946.3 57.2 926.5 44.5C926.1 44.2 925.8 44 925.1 44.1 924.8 44.2 924.3 44.6 924 45 923.5 45.8 923.7 46.7 924.5 47.2L947 61.6 952 84.8 929.5 77.6 917.1 54.1C916.7 53.5 915.9 53 915.3 53.2 915.3 53.2 915 53.2 915 53.2 914.1 53.7 914 54.7 914.2 55.4L924.9 76 914 72.4 909.3 63.3C908.9 62.7 908.1 62.3 907.5 62.4 907.5 62.4 907.2 62.5 907.2 62.5 906.3 63 906.2 64 906.4 64.6L909.7 70.8 901.6 68.3C901.3 68.3 900.9 68.1 900.6 68.2 900 68.3 899.4 68.8 899.2 69.4 899.1 70.5 899.3 71.4 900.3 71.5L908.4 74 902.2 77.3C901.4 77.8 901.3 78.8 901.4 79.4 901.9 80.3 902.9 80.4 903.6 80.3L912.7 75.7 923.6 79.2 903 89.9C902.2 90.4 902.1 91.4 902.2 92.1 903.3 92.8 904.4 93.2 905.3 92.7Z" fill="rgba(167, 164, 151, 1)"></path><path d="M1407.2 410.9L1393.4 388.2 1399.1 365.3 1416.1 381.7 1416.4 408.2C1416.4 408.2 1416.5 408.5 1416.5 408.5 1416.7 409.1 1417.5 409.6 1418.2 409.7 1419.2 409.8 1419.9 408.9 1419.7 408L1419.3 384.7 1427.6 392.7 1427.9 402.9C1427.9 402.9 1428 403.2 1428 403.2 1428.2 403.8 1429 404.3 1429.7 404.4 1430.7 404.5 1431.4 403.6 1431.1 402.7L1431.1 395.7 1437.2 401.6C1437.7 402.1 1439 402.1 1439.5 401.6 1440.3 401 1440 399.8 1439.5 399.3L1433.5 393.3 1440.4 393.3C1441.5 393.4 1442.2 392.5 1441.9 391.6 1442 390.6 1441.1 389.8 1440.2 390.1L1429.9 390.4 1422 382.3 1445.2 382C1446.2 382 1446.9 381.1 1446.7 380.2 1446.7 379.2 1445.8 378.5 1444.9 378.7L1418.4 379 1401.3 362.6 1424.4 356 1447.7 368.9C1448.5 369.4 1449.5 369.1 1449.9 368.3 1450.3 367.5 1450.1 366.6 1449.3 366.1L1428.7 354.8 1439.8 351.6 1448.5 356.4C1449.3 356.8 1450.2 356.6 1450.6 355.8 1451.1 355 1450.8 354.1 1450 353.6L1444.1 350.3 1452.7 347.9C1453.7 347.9 1454 346.8 1453.8 345.9 1453.5 345 1452.7 344.5 1451.8 344.8L1443.8 347.1 1447.1 341.1C1447.5 340.3 1447.3 339.4 1446.5 339S1444.8 338.8 1444.3 339.6L1439.5 348.3 1428.4 351.5 1439.8 330.9C1440.3 330.1 1440 329.2 1439.2 328.8 1438.4 328.3 1437.5 328.6 1437 329.4L1424.1 352.7 1401.4 359.3 1407.1 336.3 1429.2 323C1430 322.4 1430.1 321.4 1429.8 320.5 1429.3 319.6 1428.2 319.6 1427.3 319.9L1407.5 331.9 1410.3 320.8 1419.1 315.6C1419.9 315 1420 314 1419.7 313.1 1419.1 312.2 1418.1 312.2 1417.5 312.4L1411.6 316.1 1413.5 307.8C1413.7 307.1 1413.3 305.9 1412.3 305.9 1411.3 305.8 1410.4 306.1 1410.3 307.1L1408.4 315.3 1404.7 309.4C1404.1 308.5 1403.1 308.5 1402.5 308.7 1401.9 309.2 1401.5 310 1401.7 310.6 1401.7 310.6 1401.8 310.9 1401.8 310.9L1407 319.7 1404.2 330.8 1392.1 311C1391.6 310.2 1390.6 310.1 1389.9 310.3 1389.4 310.8 1389 311.6 1389.2 312.2 1389.2 312.2 1389.2 312.5 1389.2 312.5L1403.1 335.1 1397.4 358.1 1380.3 341.7 1380 315.1C1380.1 314.1 1379.2 313.4 1378.3 313.6 1377.2 313.6 1376.5 314.5 1376.8 315.4L1377.1 338.6 1368.8 330.7 1368.6 320.4C1368.6 319.4 1367.7 318.7 1366.8 318.9 1365.8 318.9 1365 319.8 1365.3 320.7L1365.3 327.7 1359.3 321.8C1358.8 321.2 1357.5 321.3 1356.9 321.8 1356.4 322.3 1356.3 323 1356.5 323.6 1356.6 323.9 1356.6 324.2 1357 324.4L1363.1 330.3 1356.1 330.3C1355.1 330.3 1354.3 331.2 1354.6 332.1 1354.6 332.1 1354.7 332.4 1354.7 332.4 1354.9 333 1355.6 333.5 1356.4 333.6L1366.6 333.3 1374.9 341.3 1351.7 341.6C1350.7 341.6 1349.9 342.4 1350.2 343.4 1350.2 343.4 1350.3 343.7 1350.3 343.7 1350.4 344.3 1351.2 344.7 1351.9 344.9L1378.5 344.5 1395.5 361 1372.8 367.5 1349.4 354.6C1348.6 354.1 1347.7 354.4 1347.2 355.2 1346.8 356 1347.1 356.9 1347.9 357.3L1368.1 368.8 1357.1 372 1348.4 367.2C1347.6 366.8 1346.6 367 1346.2 367.8S1346 369.5 1346.8 370L1352.8 373.2 1344.8 375.5C1343.9 375.8 1343.4 376.6 1343.7 377.5 1343.9 378.5 1344.7 378.9 1345.7 378.6L1353.7 376.3 1350.4 382.3C1350.1 382.7 1349.9 383.1 1350.1 383.7S1350.7 384.5 1351.1 384.7C1351.9 385.2 1352.8 384.9 1353.2 384.1L1358 375.4 1369.1 372.2 1357.7 392.8C1357.5 393.2 1357.3 393.6 1357.5 394.2 1357.6 394.5 1358 395 1358.4 395.3 1359.2 395.7 1360.1 395.4 1360.6 394.6L1373.5 371.3 1396.3 364.7 1390.6 387.7 1367.9 401.5C1367.4 402 1366.9 402.8 1367.1 403.4 1367.1 403.4 1367.2 403.7 1367.2 403.7 1367.8 404.6 1368.8 404.6 1369.4 404.4L1389.2 392.4 1386.4 403.5 1377.6 408.7C1377.1 409.2 1376.7 410 1376.8 410.6 1376.8 410.6 1376.9 410.9 1376.9 410.9 1377.5 411.8 1378.5 411.8 1379.1 411.6L1385 407.9 1383.1 416.1C1383.2 416.5 1383 416.8 1383 417.2 1383.2 417.8 1383.7 418.3 1384.4 418.4 1385.4 418.5 1386.3 418.2 1386.4 417.2L1388.3 409 1392 414.9C1392.6 415.7 1393.6 415.8 1394.2 415.6 1395.1 415 1395.1 414 1394.9 413.4L1389.7 404.6 1392.5 393.4 1404.6 413.3C1405.1 414.1 1406.2 414.2 1406.8 414 1407.4 412.8 1407.8 411.7 1407.2 410.9Z" fill="rgba(167, 164, 151, 1)"></path></g><defs><mask id="SvgjsMask1036"><rect width="1440" height="400" fill="#ffffff"></rect></mask><filter id="SvgjsFilter1037"><feGaussianBlur stdDeviation="1"></feGaussianBlur></filter></defs></svg>